<svg xmlns="http://www.w3.org/2000/svg" viewBox="0 0 32 32">
  <defs>
    <linearGradient id="lg" x1="3" y1="2" x2="29" y2="30" gradientUnits="userSpaceOnUse">
      <stop stop-color="#16a34a"/><stop offset="1" stop-color="#0891b2"/>
    </linearGradient>
  </defs>
  <rect width="32" height="32" rx="7" fill="url(#lg)"/>
  <path d="M13.2 8.5c-2.6 0-4.2 1.5-4.2 3.6 0 4.1 7.9 2.6 7.9 5.1 0 .9-.9 1.5-2.3 1.5-1.6 0-2.5-.8-2.6-1.9H9c.1 3 2.5 4.7 6 4.7 3.3 0 5.6-1.7 5.6-4.5 0-4.4-7.9-2.9-7.9-5.2 0-.8.8-1.3 2-1.3 1.3 0 2.1.6 2.3 1.7h2.9c-.2-2.7-2.3-4.4-5.7-4.4Z" fill="#fff"/>
</svg>
